<svg x="0" y="0" width="300" height="300" version="1.1" xmlns="http://www.w3.org/2000/svg" xmlns:xlink="http://www.w3.org/1999/xlink"><g fill="none" stroke="none" stroke-width="none" stroke-linecap="none" stroke-linejoin="miter" stroke-miterlimit="10" stroke-dasharray="" stroke-dashoffset="0" font-family="sans-serif" font-weight="normal" font-size="12" text-anchor="start" mix-blend-mode="normal"><path d="M0,300l0,-300l300,0l0,300z" fill="#ffffff" stroke-width="1" stroke-linecap="butt"></path><path d="M183.9,48.3l-67.8,203.4" stroke="#558779" stroke-width="29.69848" stroke-linecap="butt"></path><path d="M251.7,48.3l-135.6,135.6" stroke="#b1a455" stroke-width="29.69848" stroke-linecap="butt"></path><path d="M251.7,48.3l0,135.6" stroke="#899f95" stroke-width="29.69848" stroke-linecap="butt"></path><path d="M183.9,48.3l-26.56313,13.28157l-54.51843,163.5553" stroke="#558779" stroke-width="21" stroke-linecap="square"></path><path d="M116.1,251.7l26.56313,-13.28157l54.51843,-163.5553" stroke="#558779" stroke-width="21" stroke-linecap="square"></path><path d="M116.1,154.20152l105.90152,-105.90152l29.69848,0l0,29.69848l-105.90152,105.90152l-29.69848,0" stroke="#b1a455" stroke-width="21" stroke-linecap="square"></path><path d="M251.7,48.3l21,21l0,93.6l-21,21" stroke="#899f95" stroke-width="21" stroke-linecap="square"></path><path d="M230.7,162.9l0,-93.6" stroke="#899f95" stroke-width="21" stroke-linecap="square"></path></g></svg>