<svg x="0" y="0" width="300" height="300" version="1.1" xmlns="http://www.w3.org/2000/svg" xmlns:xlink="http://www.w3.org/1999/xlink"><g fill="none" stroke="none" stroke-width="none" stroke-linecap="none" stroke-linejoin="miter" stroke-miterlimit="10" stroke-dasharray="" stroke-dashoffset="0" font-family="sans-serif" font-weight="normal" font-size="12" text-anchor="start" mix-blend-mode="normal"><path d="M0,300l0,-300l300,0l0,300z" fill="#ffffff" stroke-width="1" stroke-linecap="butt"></path><path d="M116.1,48.3l135.6,203.4" stroke="#558779" stroke-width="29.69848" stroke-linecap="butt"></path><path d="M251.7,116.1l-135.6,135.6" stroke="#b1a455" stroke-width="29.69848" stroke-linecap="butt"></path><path d="M48.3,183.9l67.8,67.8" stroke="#899f95" stroke-width="29.69848" stroke-linecap="butt"></path><path d="M116.1,48.3l29.12176,5.82435l112.30259,168.45389l-5.82435,29.12176l-29.12176,-5.82435l-112.30259,-168.45389" stroke="#558779" stroke-width="21" stroke-linecap="square"></path><path d="M116.1,222.00152l105.90152,-105.90152l29.69848,0l0,29.69848l-105.90152,105.90152l-29.69848,0" stroke="#b1a455" stroke-width="21" stroke-linecap="square"></path><path d="M48.3,183.9l29.69848,0l38.10152,38.10152l0,29.69848l-29.69848,0l-38.10152,-38.10152" stroke="#899f95" stroke-width="21" stroke-linecap="square"></path></g></svg>